<mxfile host="app.diagrams.net" modified="2022-04-02T15:42:47.261Z" agent="5.0 (Windows NT 10.0; Win64; x64) AppleWebKit/537.36 (KHTML, like Gecko) Chrome/100.0.4896.60 Safari/537.36" etag="G34PCuMhMmwhh1AT1WvU" version="17.4.0" type="github">
  <diagram id="EzknV4vrXtdMTsb4mSIc" name="Page-1">
    <mxGraphModel dx="918" dy="505" grid="1" gridSize="10" guides="1" tooltips="1" connect="1" arrows="1" fold="1" page="1" pageScale="1" pageWidth="827" pageHeight="1169" math="0" shadow="0">
      <root>
        <mxCell id="0" />
        <mxCell id="1" parent="0" />
        <mxCell id="HmDkkWHDEEoavgmJ92DL-2" value="" style="endArrow=none;html=1;rounded=0;entryX=0.5;entryY=1;entryDx=0;entryDy=0;endFill=0;startArrow=none;startFill=0;" parent="1" target="HmDkkWHDEEoavgmJ92DL-4" edge="1">
          <mxGeometry width="50" height="50" relative="1" as="geometry">
            <mxPoint x="160" y="320" as="sourcePoint" />
            <mxPoint x="159.6" as="targetPoint" />
            <Array as="points">
              <mxPoint x="160" y="320" />
            </Array>
          </mxGeometry>
        </mxCell>
        <mxCell id="HmDkkWHDEEoavgmJ92DL-3" value="" style="endArrow=none;html=1;rounded=0;" parent="1" edge="1">
          <mxGeometry width="50" height="50" relative="1" as="geometry">
            <mxPoint x="560" y="320" as="sourcePoint" />
            <mxPoint x="560" y="40" as="targetPoint" />
          </mxGeometry>
        </mxCell>
        <mxCell id="HmDkkWHDEEoavgmJ92DL-4" value="&lt;font style=&quot;font-size: 14px&quot;&gt;Client&lt;/font&gt;" style="text;html=1;strokeColor=none;fillColor=none;align=center;verticalAlign=middle;whiteSpace=wrap;rounded=0;" parent="1" vertex="1">
          <mxGeometry x="130" y="20" width="60" height="20" as="geometry" />
        </mxCell>
        <mxCell id="HmDkkWHDEEoavgmJ92DL-5" value="&lt;font style=&quot;font-size: 14px&quot;&gt;Serveur&lt;br&gt;&lt;/font&gt;" style="text;html=1;strokeColor=none;fillColor=none;align=center;verticalAlign=middle;whiteSpace=wrap;rounded=0;" parent="1" vertex="1">
          <mxGeometry x="530" y="20" width="60" height="20" as="geometry" />
        </mxCell>
        <mxCell id="HmDkkWHDEEoavgmJ92DL-6" value="" style="endArrow=classic;html=1;rounded=0;fontSize=14;" parent="1" edge="1">
          <mxGeometry width="50" height="50" relative="1" as="geometry">
            <mxPoint x="160" y="80" as="sourcePoint" />
            <mxPoint x="560" y="80" as="targetPoint" />
          </mxGeometry>
        </mxCell>
        <mxCell id="HmDkkWHDEEoavgmJ92DL-7" value="entier : code commande (0 = quitter, 1 = get)" style="text;html=1;strokeColor=none;fillColor=none;align=center;verticalAlign=middle;whiteSpace=wrap;rounded=0;fontSize=14;" parent="1" vertex="1">
          <mxGeometry x="160" y="60" width="400" height="20" as="geometry" />
        </mxCell>
        <mxCell id="HmDkkWHDEEoavgmJ92DL-9" value="" style="endArrow=classic;html=1;rounded=0;fontSize=14;" parent="1" edge="1">
          <mxGeometry width="50" height="50" relative="1" as="geometry">
            <mxPoint x="160" y="120" as="sourcePoint" />
            <mxPoint x="560" y="120" as="targetPoint" />
          </mxGeometry>
        </mxCell>
        <mxCell id="HmDkkWHDEEoavgmJ92DL-11" value="entier : nombre de caractères du nom du fichier" style="text;html=1;strokeColor=none;fillColor=none;align=center;verticalAlign=middle;whiteSpace=wrap;rounded=0;fontSize=14;" parent="1" vertex="1">
          <mxGeometry x="160" y="100" width="400" height="20" as="geometry" />
        </mxCell>
        <mxCell id="HmDkkWHDEEoavgmJ92DL-12" value="" style="endArrow=classic;html=1;rounded=0;fontSize=14;" parent="1" edge="1">
          <mxGeometry width="50" height="50" relative="1" as="geometry">
            <mxPoint x="160" y="160" as="sourcePoint" />
            <mxPoint x="560" y="160" as="targetPoint" />
          </mxGeometry>
        </mxCell>
        <mxCell id="HmDkkWHDEEoavgmJ92DL-13" value="chaine de caractères : nom du fichier" style="text;html=1;strokeColor=none;fillColor=none;align=center;verticalAlign=middle;whiteSpace=wrap;rounded=0;fontSize=14;" parent="1" vertex="1">
          <mxGeometry x="160" y="140" width="400" height="20" as="geometry" />
        </mxCell>
        <mxCell id="HmDkkWHDEEoavgmJ92DL-14" value="" style="endArrow=classic;html=1;rounded=0;fontSize=14;" parent="1" edge="1">
          <mxGeometry width="50" height="50" relative="1" as="geometry">
            <mxPoint x="560" y="200" as="sourcePoint" />
            <mxPoint x="160" y="200" as="targetPoint" />
          </mxGeometry>
        </mxCell>
        <mxCell id="HmDkkWHDEEoavgmJ92DL-15" value="entier t : taille/nombre d&#39;octets du fichier ou -1 s&#39;il n&#39;existe pas" style="text;html=1;strokeColor=none;fillColor=none;align=center;verticalAlign=middle;whiteSpace=wrap;rounded=0;fontSize=14;" parent="1" vertex="1">
          <mxGeometry x="160" y="180" width="400" height="20" as="geometry" />
        </mxCell>
        <mxCell id="HmDkkWHDEEoavgmJ92DL-16" value="" style="endArrow=classic;html=1;rounded=0;fontSize=14;" parent="1" edge="1">
          <mxGeometry width="50" height="50" relative="1" as="geometry">
            <mxPoint x="560" y="280" as="sourcePoint" />
            <mxPoint x="160" y="280" as="targetPoint" />
          </mxGeometry>
        </mxCell>
        <mxCell id="HmDkkWHDEEoavgmJ92DL-17" value="le fichier existe ?" style="text;html=1;strokeColor=none;fillColor=none;align=right;verticalAlign=middle;whiteSpace=wrap;rounded=0;fontSize=14;" parent="1" vertex="1">
          <mxGeometry x="20" y="190" width="130" height="20" as="geometry" />
        </mxCell>
        <mxCell id="HmDkkWHDEEoavgmJ92DL-18" value="blksize octets : contenu du fichier par morceaux" style="text;html=1;strokeColor=none;fillColor=none;align=center;verticalAlign=middle;whiteSpace=wrap;rounded=0;fontSize=14;" parent="1" vertex="1">
          <mxGeometry x="160" y="260" width="400" height="20" as="geometry" />
        </mxCell>
        <mxCell id="HmDkkWHDEEoavgmJ92DL-29" value="" style="endArrow=classic;html=1;rounded=0;fontSize=11;" parent="1" edge="1">
          <mxGeometry width="50" height="50" relative="1" as="geometry">
            <mxPoint x="160" y="240" as="sourcePoint" />
            <mxPoint x="560" y="240" as="targetPoint" />
          </mxGeometry>
        </mxCell>
        <mxCell id="HmDkkWHDEEoavgmJ92DL-30" value="" style="endArrow=classic;html=1;rounded=0;fontSize=11;entryX=0;entryY=0;entryDx=0;entryDy=0;exitX=0.75;exitY=1;exitDx=0;exitDy=0;" parent="1" source="HmDkkWHDEEoavgmJ92DL-31" edge="1" target="HmDkkWHDEEoavgmJ92DL-7">
          <mxGeometry width="50" height="50" relative="1" as="geometry">
            <mxPoint x="140" y="180" as="sourcePoint" />
            <mxPoint x="160" y="80" as="targetPoint" />
            <Array as="points">
              <mxPoint x="140" y="60" />
            </Array>
          </mxGeometry>
        </mxCell>
        <mxCell id="HmDkkWHDEEoavgmJ92DL-31" value="non" style="text;html=1;strokeColor=none;fillColor=none;align=center;verticalAlign=middle;whiteSpace=wrap;rounded=0;fontSize=11;" parent="1" vertex="1">
          <mxGeometry x="110" y="170" width="40" height="20" as="geometry" />
        </mxCell>
        <mxCell id="HmDkkWHDEEoavgmJ92DL-32" value="" style="endArrow=classic;html=1;rounded=0;fontSize=11;entryX=0;entryY=0;entryDx=0;entryDy=0;exitX=0.75;exitY=0;exitDx=0;exitDy=0;" parent="1" source="HmDkkWHDEEoavgmJ92DL-33" edge="1" target="HmDkkWHDEEoavgmJ92DL-35">
          <mxGeometry width="50" height="50" relative="1" as="geometry">
            <mxPoint x="140" y="200" as="sourcePoint" />
            <mxPoint x="160" y="240" as="targetPoint" />
            <Array as="points">
              <mxPoint x="140" y="220" />
            </Array>
          </mxGeometry>
        </mxCell>
        <mxCell id="HmDkkWHDEEoavgmJ92DL-33" value="oui" style="text;html=1;strokeColor=none;fillColor=none;align=center;verticalAlign=middle;whiteSpace=wrap;rounded=0;fontSize=11;" parent="1" vertex="1">
          <mxGeometry x="110" y="210" width="40" height="20" as="geometry" />
        </mxCell>
        <mxCell id="HmDkkWHDEEoavgmJ92DL-35" value="entier d : taille/nombre d&#39;octets déjà lus dans le fichier" style="text;html=1;strokeColor=none;fillColor=none;align=center;verticalAlign=middle;whiteSpace=wrap;rounded=0;fontSize=14;" parent="1" vertex="1">
          <mxGeometry x="160" y="220" width="400" height="20" as="geometry" />
        </mxCell>
        <mxCell id="HmDkkWHDEEoavgmJ92DL-36" value="" style="endArrow=classic;html=1;rounded=0;fontSize=11;exitX=0.75;exitY=0;exitDx=0;exitDy=0;" parent="1" edge="1" source="Pa_hyYoNJzzDwvoHRgky-6">
          <mxGeometry width="50" height="50" relative="1" as="geometry">
            <mxPoint x="70" y="300" as="sourcePoint" />
            <mxPoint x="160" y="300" as="targetPoint" />
            <Array as="points">
              <mxPoint x="140" y="300" />
            </Array>
          </mxGeometry>
        </mxCell>
        <mxCell id="HmDkkWHDEEoavgmJ92DL-37" value="&lt;font style=&quot;font-size: 14px&quot;&gt;Si code = 0 la communication client-serveur est fermée&lt;/font&gt;" style="text;html=1;strokeColor=none;fillColor=none;align=center;verticalAlign=middle;whiteSpace=wrap;rounded=0;fontSize=11;" parent="1" vertex="1">
          <mxGeometry x="560" y="50" width="160" height="60" as="geometry" />
        </mxCell>
        <mxCell id="Pa_hyYoNJzzDwvoHRgky-3" value="t-d octets envoyés ?" style="text;html=1;strokeColor=none;fillColor=none;align=right;verticalAlign=middle;whiteSpace=wrap;rounded=0;fontSize=14;" vertex="1" parent="1">
          <mxGeometry x="20" y="270" width="130" height="20" as="geometry" />
        </mxCell>
        <mxCell id="Pa_hyYoNJzzDwvoHRgky-4" value="non" style="text;html=1;strokeColor=none;fillColor=none;align=center;verticalAlign=middle;whiteSpace=wrap;rounded=0;fontSize=11;" vertex="1" parent="1">
          <mxGeometry x="110" y="250" width="40" height="20" as="geometry" />
        </mxCell>
        <mxCell id="Pa_hyYoNJzzDwvoHRgky-5" value="" style="endArrow=classic;html=1;rounded=0;fontSize=11;entryX=0;entryY=0;entryDx=0;entryDy=0;" edge="1" parent="1" target="HmDkkWHDEEoavgmJ92DL-18">
          <mxGeometry width="50" height="50" relative="1" as="geometry">
            <mxPoint x="140" y="270" as="sourcePoint" />
            <mxPoint x="160" y="300" as="targetPoint" />
            <Array as="points">
              <mxPoint x="140" y="260" />
            </Array>
          </mxGeometry>
        </mxCell>
        <mxCell id="Pa_hyYoNJzzDwvoHRgky-6" value="oui" style="text;html=1;strokeColor=none;fillColor=none;align=center;verticalAlign=middle;whiteSpace=wrap;rounded=0;fontSize=11;" vertex="1" parent="1">
          <mxGeometry x="110" y="290" width="40" height="20" as="geometry" />
        </mxCell>
      </root>
    </mxGraphModel>
  </diagram>
</mxfile>
